# xmcd CD database file
#
# Track frame offsets:
#	150
#	13225
#	30522
#	47337
#	60995
#	75247
#	88047
#	103752
#	119325
#	134342
#	148695
#	161807
#	177732
#	189615
#	203132
#	218200
#	234007
#	247137
#	265505
#	276640
#
# Disc length: 3904 seconds
#
# Revision: 1
# Processed by: cddbd v1.5.2PL0 Copyright (c) Steve Scherf et al.
# Submitted via: jetAudio 7
#
DISCID=1d0f3e14
DTITLE=Неизвестен изпълнител - Неизвестен
DTITLE=албум
DYEAR=1900
DGENRE=Неизвестен жанр
TTITLE0=Пътека 1
TTITLE1=Пътека 2
TTITLE2=Пътека 3
TTITLE3=Пътека 4
TTITLE4=Пътека 5
TTITLE5=Пътека 6
TTITLE6=Пътека 7
TTITLE7=Пътека 8
TTITLE8=Пътека 9
TTITLE9=Пътека 10
TTITLE10=Пътека 11
TTITLE11=Пътека 12
TTITLE12=Пътека 13
TTITLE13=Пътека 14
TTITLE14=Пътека 15
TTITLE15=Пътека 16
TTITLE16=Пътека 17
TTITLE17=Пътека 18
TTITLE18=Пътека 19
TTITLE19=Пътека 20
EXTD=
EXTT0=
EXTT1=
EXTT2=
EXTT3=
EXTT4=
EXTT5=
EXTT6=
EXTT7=
EXTT8=
EXTT9=
EXTT10=
EXTT11=
EXTT12=
EXTT13=
EXTT14=
EXTT15=
EXTT16=
EXTT17=
EXTT18=
EXTT19=
PLAYORDER=
